<svg width="43" height="43" viewBox="0 0 43 43" fill="none" xmlns="http://www.w3.org/2000/svg">
<g clip-path="url(#clip0_359_3894)">
<path d="M40.0225 6.94339C36.0784 6.94339 32.1354 6.93613 28.1913 6.95375C27.7952 6.95582 27.7298 6.84387 27.734 6.48001C27.7537 4.61716 27.7392 2.75431 27.7464 0.891457C27.7475 0.532778 27.678 0.231114 27.3191 0.071471C26.952 -0.0912822 26.6855 0.0808008 26.4355 0.332705C25.7956 0.979571 25.1412 1.61192 24.5117 2.26812C24.323 2.46508 24.2234 2.45575 24.0388 2.26397C23.4083 1.60881 22.758 0.971278 22.1119 0.331669C21.6628 -0.113052 21.3403 -0.110978 20.8892 0.335815C20.243 0.976461 19.5928 1.61296 18.9633 2.27019C18.7724 2.46923 18.6729 2.45368 18.4904 2.26397C17.8588 1.60881 17.2095 0.971278 16.5634 0.331669C16.1144 -0.112015 15.7929 -0.109942 15.3407 0.337889C14.6946 0.978535 14.0443 1.61503 13.4148 2.27227C13.223 2.47234 13.1234 2.45161 12.9419 2.26397C12.3207 1.61918 11.6766 0.997194 11.0471 0.360695C10.8013 0.1119 10.5441 -0.0860989 10.1708 0.0590313C9.78706 0.209345 9.70824 0.522411 9.70928 0.900786C9.71757 2.79266 9.70513 4.68454 9.72068 6.57538C9.72276 6.87911 9.64912 6.95479 9.34422 6.95271C7.22025 6.9382 5.09732 6.94442 2.97335 6.94546C1.15843 6.94442 0 8.10443 0 9.92374C0 17.6343 0 25.3449 0 33.0565C0 34.9006 1.15429 36.0586 2.99202 36.0586C6.34391 36.0586 9.69476 36.0586 13.0466 36.0586H13.5382C12.8123 37.8748 12.106 39.635 11.4091 41.4004C11.3344 41.5911 11.2172 41.6088 11.0482 41.6077C10.2102 41.6025 9.37222 41.6057 8.53425 41.6057C7.62783 41.6057 7.65272 41.6057 7.61746 42.521C7.6019 42.9284 7.73257 43.002 8.11215 43.001C16.8517 42.9896 25.5924 42.9927 34.332 42.9927C35.3991 42.9927 35.3908 42.9927 35.3774 41.9073C35.3742 41.6596 35.3058 41.5974 35.0642 41.6005C34.0385 41.6139 33.0128 41.6077 31.9871 41.6046C31.8398 41.6046 31.6926 41.6513 31.6065 41.4336C30.9054 39.6557 30.1898 37.8841 29.467 36.0793C29.5551 36.0679 29.5842 36.0617 29.6122 36.0617C33.0792 36.0617 36.5462 36.0617 40.0132 36.0596C41.8302 36.0596 42.999 34.8996 42.999 33.0927C43 25.3677 42.999 17.6426 42.999 9.91648C42.999 8.10235 41.8374 6.94339 40.0215 6.94339H40.0225ZM11.099 2.38008C11.5709 2.85175 11.9898 3.26952 12.4078 3.68729C13.0653 4.34348 13.2893 4.34555 13.9385 3.69765C14.5214 3.11609 15.1125 2.54179 15.6798 1.94676C15.8821 1.73425 16.0013 1.70937 16.217 1.93639C16.8341 2.58533 17.4761 3.21043 18.1118 3.84071C18.563 4.2875 18.8876 4.29061 19.3345 3.84797C19.9817 3.20836 20.6299 2.56978 21.2615 1.91462C21.444 1.72596 21.5436 1.70833 21.7344 1.90737C22.3639 2.56356 23.0142 3.20006 23.6613 3.84071C24.1114 4.28647 24.435 4.28958 24.884 3.84589C25.3538 3.38148 25.8143 2.90877 26.3546 2.36349V2.9098C26.3546 10.3322 26.3598 17.7535 26.3484 25.1759C26.3474 26.0757 26.4656 26.9237 27.0474 27.7385C24.0502 27.7385 21.1329 27.7385 18.2145 27.7385C16.972 27.7385 15.7296 27.754 14.4872 27.7333C12.6401 27.7022 11.1083 26.2001 11.1052 24.36C11.0896 17.0683 11.099 9.77653 11.099 2.37904V2.38008ZM14.8253 29.1255C19.738 29.1255 24.6497 29.1255 29.5624 29.1255C31.8398 29.1255 33.2897 27.6732 33.2907 25.3905C33.2907 21.4046 33.2907 17.4187 33.2907 13.4328C33.2907 12.7019 33.074 12.4884 32.3314 12.4884C30.9303 12.4884 29.5281 12.4749 28.127 12.4977C27.79 12.5029 27.7288 12.4034 27.734 12.0914C27.7516 11.1014 27.7381 11.1014 28.7462 11.1014C31.9684 11.1014 35.1896 11.1086 38.4119 11.091C38.7863 11.0889 38.8475 11.1967 38.8464 11.543C38.835 18.1858 38.835 24.8296 38.8485 31.4725C38.8485 31.8467 38.7438 31.9079 38.3974 31.9068C32.7628 31.8954 27.1283 31.8985 21.4927 31.8985C15.8572 31.8985 10.2237 31.8944 4.58811 31.9079C4.21579 31.9079 4.15253 31.8052 4.15253 31.4569C4.16393 24.8141 4.16497 18.1702 4.15149 11.5274C4.15149 11.1553 4.25312 11.0869 4.60262 11.092C6.17693 11.1128 7.75228 11.1128 9.32659 11.092C9.66676 11.0869 9.71757 11.1916 9.71654 11.4994C9.70617 15.673 9.70928 19.8465 9.70928 24.02C9.70928 27.0481 11.7907 29.1245 14.8242 29.1255H14.8253ZM31.9031 19.9833C31.9031 21.8317 31.9052 23.68 31.9031 25.5283C31.901 26.8055 30.9987 27.7499 29.8009 27.7385C28.6228 27.7281 27.7443 26.7879 27.7433 25.5283C27.7412 21.7736 27.7475 18.0189 27.734 14.2652C27.7329 13.9418 27.8076 13.8599 28.1333 13.8661C29.2741 13.8889 30.4159 13.8848 31.5567 13.8682C31.8398 13.864 31.9124 13.9407 31.9104 14.2227C31.8979 16.1436 31.9031 18.0635 31.9031 19.9844V19.9833ZM30.1805 41.5974H12.8206C13.1431 40.7929 13.4563 40.0134 13.7674 39.2328C14.1512 38.2708 14.5421 37.3119 14.9113 36.3447C14.9974 36.1187 15.1084 36.0513 15.3469 36.0524C19.4497 36.0606 23.5514 36.0586 27.6541 36.0575C27.8263 36.0575 27.9704 36.0399 28.0586 36.2659C28.7503 38.0323 29.4587 39.7915 30.1805 41.5974ZM39.9634 34.6715C33.8093 34.6715 27.6552 34.6715 21.501 34.6715C15.3469 34.6715 9.1928 34.6715 3.03765 34.6715C1.91033 34.6715 1.38763 34.1543 1.38763 33.0409C1.38763 25.3438 1.38763 17.6478 1.38763 9.95069C1.38763 8.86325 1.91966 8.32938 3.00239 8.32938C5.11184 8.32938 7.22129 8.33456 9.3297 8.32212C9.61594 8.32005 9.72276 8.36566 9.71861 8.68702C9.70409 9.71537 9.71861 9.71537 8.70018 9.71537C7.03876 9.71537 5.37733 9.71537 3.71591 9.71537C3.00031 9.71537 2.77423 9.93514 2.77423 10.6328C2.77423 17.8821 2.77423 25.1313 2.77423 32.3806C2.77423 33.0564 3.00446 33.2855 3.6848 33.2855C15.5606 33.2855 27.4353 33.2855 39.3111 33.2855C39.9924 33.2855 40.2247 33.0565 40.2247 32.3826C40.2247 25.1334 40.2247 17.8841 40.2247 10.6349C40.2247 9.93618 39.9976 9.71537 39.2841 9.71537C35.5858 9.71537 31.8875 9.71019 28.1893 9.72263C27.8532 9.72367 27.7174 9.6822 27.7298 9.29449C27.762 8.32938 27.7392 8.32834 28.7254 8.32834C32.4818 8.32834 36.2381 8.32834 39.9935 8.32834C41.0845 8.32834 41.6113 8.85599 41.6113 9.94862C41.6113 17.6457 41.6113 25.3417 41.6113 33.0388C41.6113 34.1532 41.0876 34.6715 39.9623 34.6715H39.9634Z" fill="#E7E7E7"/>
<path d="M18.7649 12.4926C19.4711 12.5154 20.0332 13.0503 20.1058 13.7293C20.1774 14.3948 19.7532 15.0127 19.0926 15.2055C18.4548 15.3921 17.6593 15.0956 17.4955 14.4508C17.3357 13.8267 16.9831 13.8288 16.5164 13.8734C16.4158 13.8827 16.3121 13.8879 16.2136 13.8724C15.9523 13.8299 15.9315 13.9698 15.9606 14.172C16.0736 14.966 16.3806 15.7383 17.0983 16.0649C17.9435 16.4505 18.1799 16.9864 18.0316 17.8168C18.0016 17.9837 18.0804 18.0262 18.2463 18.0397C19.4172 18.1361 19.4162 18.1413 19.4172 16.9947C19.4172 16.9802 19.4193 16.9657 19.4172 16.9512C19.3695 16.6703 19.4742 16.5365 19.7584 16.4235C21.5889 15.6948 22.0825 13.3665 20.7188 11.9546C20.1598 11.3761 19.4659 11.118 18.6612 11.0952C17.9632 11.0755 17.399 10.5147 17.3409 9.83878C17.2829 9.16703 17.7101 8.56267 18.376 8.37608C19.0086 8.19881 19.8134 8.51499 19.9606 9.15874C20.0996 9.7631 20.4346 9.74237 20.866 9.71749C20.9811 9.71127 21.0994 9.70194 21.2124 9.71957C21.4862 9.75999 21.5235 9.62731 21.4862 9.39821C21.312 8.33254 20.7468 7.56127 19.7408 7.15905C19.4722 7.05124 19.3778 6.92996 19.4151 6.6625C19.4307 6.54951 19.4182 6.43237 19.4172 6.31626C19.4172 6.12863 19.4099 5.941 19.4193 5.75337C19.4276 5.60409 19.3716 5.56781 19.2233 5.55122C18.0462 5.42164 18.0306 5.43097 18.0296 6.57335C18.0296 6.60238 18.0254 6.6314 18.0296 6.65939C18.0731 6.92477 17.9777 7.04813 17.707 7.15491C16.0778 7.7997 15.4493 9.70402 16.3713 11.1709C16.9199 12.0448 17.734 12.4573 18.7618 12.4905L18.7649 12.4926Z" fill="#68D6BC"/>
<path d="M14.262 20.8158C17.0207 20.8013 19.7804 20.8075 22.5391 20.8075C23.5928 20.8075 23.5814 20.8075 23.5876 19.7678C23.5896 19.4837 23.5139 19.4112 23.2319 19.4143C21.7291 19.4288 20.2274 19.4215 18.7246 19.4215H14.8677C13.8648 19.4215 13.8814 19.4215 13.8607 20.4178C13.8544 20.7433 13.9384 20.8179 14.261 20.8158H14.262Z" fill="#E7E7E7"/>
<path d="M23.245 22.1883C21.7423 22.1997 20.2406 22.1935 18.7378 22.1935H14.8809C13.8614 22.1935 13.8769 22.1935 13.8624 23.2208C13.8583 23.5401 13.962 23.5878 14.2503 23.5867C17.009 23.5753 19.7687 23.5805 22.5273 23.5805C23.6028 23.5805 23.5893 23.5805 23.5893 22.5097C23.5893 22.2246 23.4939 22.1873 23.245 22.1883Z" fill="#E7E7E7"/>
<path d="M20.5027 24.9613C19.4625 24.9748 18.4223 24.9676 17.3832 24.9676C16.5597 24.9676 15.7363 24.9676 14.9128 24.9676C13.8591 24.9676 13.8705 24.9676 13.8643 26.0073C13.8622 26.2903 13.9359 26.3629 14.219 26.3608C16.0681 26.3473 17.9173 26.3536 19.7654 26.3536C20.8346 26.3536 20.8253 26.3536 20.8128 25.2713C20.8097 25.0277 20.7475 24.9582 20.5027 24.9613Z" fill="#E7E7E7"/>
<path d="M22.8882 24.9666C22.425 24.9666 22.1934 25.197 22.1934 25.658C22.1934 26.119 22.4239 26.3505 22.8851 26.3525C23.3463 26.3546 23.5779 26.1241 23.58 25.6611C23.582 25.1981 23.3514 24.9666 22.8882 24.9666Z" fill="#E7E7E7"/>
</g>
<defs>
<clipPath id="clip0_359_3894">
<rect width="43" height="43" fill="white"/>
</clipPath>
</defs>
</svg>
