<svg width="15" height="15" viewBox="0 0 15 15" fill="none" xmlns="http://www.w3.org/2000/svg">
<path d="M9.625 7.5C9.625 7.92029 9.50037 8.33113 9.26687 8.68059C9.03337 9.03004 8.7015 9.30241 8.3132 9.46324C7.92491 9.62408 7.49764 9.66616 7.08543 9.58417C6.67322 9.50218 6.29458 9.29979 5.9974 9.0026C5.70021 8.70541 5.49782 8.32678 5.41583 7.91457C5.33384 7.50236 5.37592 7.07509 5.53676 6.6868C5.69759 6.2985 5.96996 5.96663 6.31941 5.73313C6.66887 5.49963 7.07971 5.375 7.5 5.375C8.06305 5.37675 8.60253 5.6012 9.00067 5.99933C9.3988 6.39747 9.62325 6.93695 9.625 7.5ZM14.1406 4.57812V10.4219C14.1406 11.4081 13.7488 12.354 13.0514 13.0514C12.354 13.7488 11.4081 14.1406 10.4219 14.1406H4.57812C3.59185 14.1406 2.64597 13.7488 1.94857 13.0514C1.25117 12.354 0.859375 11.4081 0.859375 10.4219V4.57812C0.859375 3.59185 1.25117 2.64597 1.94857 1.94857C2.64597 1.25117 3.59185 0.859375 4.57812 0.859375H10.4219C11.4081 0.859375 12.354 1.25117 13.0514 1.94857C13.7488 2.64597 14.1406 3.59185 14.1406 4.57812ZM10.6875 7.5C10.6875 6.86957 10.5006 6.2533 10.1503 5.72912C9.80006 5.20494 9.30224 4.79639 8.7198 4.55513C8.13736 4.31388 7.49646 4.25076 6.87815 4.37375C6.25984 4.49674 5.69188 4.80032 5.2461 5.2461C4.80032 5.69188 4.49674 6.25984 4.37375 6.87815C4.25076 7.49646 4.31388 8.13736 4.55513 8.7198C4.79639 9.30224 5.20494 9.80006 5.72912 10.1503C6.2533 10.5006 6.86957 10.6875 7.5 10.6875C8.34538 10.6875 9.15613 10.3517 9.7539 9.7539C10.3517 9.15613 10.6875 8.34538 10.6875 7.5ZM11.75 4.04688C11.75 3.88927 11.7033 3.7352 11.6157 3.60416C11.5281 3.47311 11.4037 3.37097 11.2581 3.31066C11.1125 3.25034 10.9522 3.23456 10.7977 3.26531C10.6431 3.29606 10.5011 3.37195 10.3896 3.4834C10.2782 3.59484 10.2023 3.73683 10.1716 3.89141C10.1408 4.04599 10.1566 4.20622 10.2169 4.35183C10.2772 4.49744 10.3794 4.62189 10.5104 4.70945C10.6415 4.79701 10.7955 4.84375 10.9531 4.84375C11.1645 4.84375 11.3672 4.75979 11.5166 4.61035C11.666 4.46091 11.75 4.25822 11.75 4.04688Z" fill="#1A1A1A"/>
</svg>
