<svg width="234" height="30" viewBox="0 0 234 30" fill="none" xmlns="http://www.w3.org/2000/svg">
<g clip-path="url(#clip0_359_4131)">
<path d="M35.0645 8.59399H38.3494L40.7874 20.8215L42.7122 8.59399H48.9484L50.8988 20.847L53.3369 8.59399H56.5961L53.7475 21.766H47.9989L45.8431 9.46192L43.6617 21.766H37.9131L35.0645 8.59399Z" fill="#F5F5F5"/>
<path d="M62.9607 8.33887C67.4005 8.33887 70.5057 12.0148 69.7872 16.4054H59.5731C60.035 17.9626 61.3695 19.0602 63.1916 19.0602C64.6288 19.0602 65.835 18.371 66.4766 17.2223L69.3252 18.4986C68.1704 20.5663 65.9633 22.0214 63.089 22.0214C59.0598 22.0214 56.0059 19.0602 56.0059 15.1801C56.0059 11.3 59.0085 8.33887 62.9607 8.33887ZM66.3226 13.7761C65.8606 12.2956 64.6031 11.3 62.9607 11.3C61.3182 11.3 60.112 12.2956 59.6244 13.7761H66.3226Z" fill="#F5F5F5"/>
<path d="M69.582 8.5941H72.251V4.71398L75.7156 3.64185V8.5941H79.1545V11.6318H75.7156V16.8649C75.7156 18.1412 76.3059 18.7284 77.5891 18.7284H79.1545V21.7661H77.5891C73.9448 21.7661 72.251 20.0813 72.251 16.6607V11.6318H69.582V8.5941Z" fill="#F5F5F5"/>
<path d="M80.3867 2.87598H83.8513V11.9636C84.5442 9.74276 86.238 8.33877 88.4451 8.33877C91.3964 8.33877 93.3211 10.6362 93.3211 13.776V21.766H89.8566V14.3887C89.8566 12.6784 88.6247 11.4786 86.9822 11.4786C85.1345 11.4786 83.8513 12.6784 83.8513 14.3887V21.766H80.3867V2.87598Z" fill="#F5F5F5"/>
<path d="M94.0332 8.84937H96.9588V4.22897L98.8836 3.64185V8.84937H102.836V10.5852H98.8836V17.3754C98.8836 19.2644 99.6279 20.0302 101.527 20.0302H102.836V21.7661H101.527C98.396 21.7661 96.9588 20.3366 96.9588 17.2988V10.5852H94.0332V8.84937Z" fill="#E7E7E7"/>
<path d="M109.637 8.59399C113.614 8.59399 116.591 11.7594 116.284 15.8947H104.863C105.146 18.4475 107.147 20.3109 109.791 20.3109C111.818 20.3109 113.461 19.2388 114.282 17.554L115.924 18.2432C114.872 20.4641 112.639 22.0212 109.765 22.0212C105.89 22.0212 102.938 19.1367 102.938 15.3076C102.938 11.4786 105.838 8.59399 109.637 8.59399ZM114.333 14.3121C113.948 12.0402 112.1 10.3043 109.637 10.3043C107.173 10.3043 105.351 11.9891 104.915 14.3121H114.333Z" fill="#E7E7E7"/>
<path d="M123.701 8.59399C126.549 8.59399 128.859 10.1767 129.911 12.6273L128.14 13.2399C127.345 11.4786 125.702 10.3809 123.701 10.3809C120.955 10.3809 118.85 12.4996 118.85 15.3076C118.85 18.1156 120.955 20.2343 123.701 20.2343C125.702 20.2343 127.345 19.1367 128.14 17.3753L129.911 17.988C128.859 20.4386 126.549 22.0212 123.701 22.0212C119.825 22.0212 116.874 19.1367 116.874 15.3076C116.874 11.4786 119.825 8.59399 123.701 8.59399Z" fill="#E7E7E7"/>
<path d="M131.579 2.87598H133.504V12.1678C134.222 10.0236 136.019 8.59404 138.303 8.59404C141.357 8.59404 143.538 10.9681 143.538 14.1589V21.766H141.614V14.3887C141.614 12.0913 139.894 10.3554 137.687 10.3554C135.249 10.3554 133.504 12.0913 133.504 14.3887V21.766H131.579V2.87598Z" fill="#E7E7E7"/>
<path d="M145.181 8.84927H147.105V12.1678C147.824 10.0235 149.62 8.59399 151.904 8.59399C154.958 8.59399 157.14 10.968 157.14 14.1589V21.766H155.215V14.3886C155.215 12.0912 153.496 10.3554 151.289 10.3554C148.851 10.3554 147.105 12.0912 147.105 14.3886V21.766H145.181V8.84927Z" fill="#E7E7E7"/>
<path d="M165.093 8.59399C168.968 8.59399 171.92 11.5041 171.92 15.3076C171.92 19.1112 168.968 22.0212 165.093 22.0212C161.218 22.0212 158.267 19.1367 158.267 15.3076C158.267 11.4786 161.218 8.59399 165.093 8.59399ZM165.093 20.2343C167.865 20.2343 169.943 18.1156 169.943 15.3076C169.943 12.4996 167.865 10.3809 165.093 10.3809C162.321 10.3809 160.243 12.4996 160.243 15.3076C160.243 18.1156 162.347 20.2343 165.093 20.2343Z" fill="#E7E7E7"/>
<path d="M173.154 2.87598H175.079V21.7632H173.154V2.87598Z" fill="#E7E7E7"/>
<path d="M183.134 8.59399C187.009 8.59399 189.961 11.5041 189.961 15.3076C189.961 19.1112 187.009 22.0212 183.134 22.0212C179.259 22.0212 176.308 19.1367 176.308 15.3076C176.308 11.4786 179.259 8.59399 183.134 8.59399ZM183.134 20.2343C185.906 20.2343 187.985 18.1156 187.985 15.3076C187.985 12.4996 185.906 10.3809 183.134 10.3809C180.362 10.3809 178.284 12.4996 178.284 15.3076C178.284 18.1156 180.388 20.2343 183.134 20.2343Z" fill="#E7E7E7"/>
<path d="M197.172 8.59399C199.764 8.59399 201.817 10.1767 202.69 12.5507V8.84927H204.614V20.413C204.614 24.2421 201.663 27.1267 197.788 27.1267C194.939 27.1267 192.706 25.5695 191.654 23.3486L193.399 22.5318C194.195 24.2421 195.786 25.3653 197.788 25.3653C200.56 25.3653 202.69 23.2465 202.69 20.413V17.9114C201.817 20.2854 199.764 21.8681 197.172 21.8681C193.656 21.8681 191.013 19.009 191.013 15.231C191.013 11.453 193.656 8.59399 197.172 8.59399ZM197.737 20.1067C200.611 20.1067 202.69 17.988 202.69 15.231C202.69 12.4741 200.611 10.3809 197.737 10.3809C195.093 10.3809 192.989 12.4741 192.989 15.231C192.989 17.988 195.093 20.1067 197.737 20.1067Z" fill="#E7E7E7"/>
<path d="M207.335 3.76953C208.028 3.76953 208.592 4.3056 208.592 5.02036C208.592 5.68406 208.028 6.24566 207.335 6.24566C206.642 6.24566 206.077 5.68406 206.077 5.02036C206.077 4.3056 206.616 3.76953 207.335 3.76953ZM206.359 8.84942H208.284V21.7661H206.359V8.84942Z" fill="#E7E7E7"/>
<path d="M216.215 8.59399C220.193 8.59399 223.17 11.7594 222.862 15.8947H211.441C211.724 18.4475 213.725 20.3109 216.369 20.3109C218.396 20.3109 220.039 19.2388 220.86 17.554L222.502 18.2432C221.45 20.4641 219.217 22.0212 216.343 22.0212C212.468 22.0212 209.517 19.1367 209.517 15.3076C209.517 11.4786 212.417 8.59399 216.215 8.59399ZM220.911 14.3121C220.526 12.0402 218.678 10.3043 216.215 10.3043C213.751 10.3043 211.929 11.9891 211.493 14.3121H220.911Z" fill="#E7E7E7"/>
<path d="M228.686 20.4103C230.662 20.4103 232.048 19.5169 232.048 18.2661C232.048 14.7178 223.759 17.3216 223.759 12.3438C223.759 10.174 225.812 8.59131 228.686 8.59131C231.561 8.59131 233.357 10.0208 233.768 12.1906L231.843 12.5735C231.561 11.0674 230.457 10.225 228.686 10.225C226.916 10.225 225.684 11.0419 225.684 12.2672C225.684 15.5602 233.999 13.033 233.999 18.215C233.999 20.4359 231.715 22.0186 228.686 22.0186C225.658 22.0186 223.785 20.589 223.374 18.4192L225.324 18.0363C225.581 19.5424 226.762 20.4103 228.686 20.4103Z" fill="#E7E7E7"/>
<path d="M25.9263 4.33967C26.2656 5.39195 26.6021 6.44423 26.9443 7.50786C26.8274 7.51353 26.8074 7.43412 26.7732 7.3859C25.4016 5.50824 24.0272 3.63058 22.6642 1.74441C22.4817 1.49198 22.2593 1.31612 21.9798 1.18282C20.8877 0.669439 19.75 0.289369 18.5751 0.0227524C18.4782 6.16619e-05 18.3755 -0.0283018 18.2586 0.0227524C18.404 0.314896 18.6179 0.550312 18.8033 0.805583C20.7423 3.46607 22.6841 6.12089 24.626 8.77854C24.6403 8.7984 24.6602 8.81825 24.6773 8.83811C24.7201 8.89767 24.7886 8.94872 24.7629 9.07352C24.3751 8.84662 24.0358 8.58 23.6936 8.31622C20.8677 6.27122 18.0419 4.22905 15.2161 2.18405C14.2865 1.51183 13.354 0.839619 12.4273 0.161733C12.2847 0.0567885 12.1593 0.0255887 11.9768 0.0681339C11.1156 0.269514 10.2744 0.533294 9.46173 0.876492C9.39329 0.904855 9.29064 0.904855 9.28494 1.00129C9.27638 1.09773 9.37904 1.11474 9.43607 1.15729C12.4216 3.31858 15.41 5.47704 18.3955 7.63833C18.5723 7.75179 18.7462 7.87091 18.9145 7.99571C19.8355 8.66509 20.7565 9.33447 21.6776 10.0038C22.1595 10.3527 22.6414 10.7044 23.1204 11.0533C23.1689 11.0873 23.2088 11.1299 23.2373 11.2093C22.6984 11.0391 22.1623 10.8689 21.6234 10.6931C19.6245 10.0464 17.6256 9.40254 15.6267 8.75585C13.7589 8.15171 11.8941 7.5419 10.0263 6.93776C8.16715 6.33645 6.30797 5.74366 4.44594 5.14802C4.43738 5.14802 4.42883 5.14519 4.42027 5.14235C3.99255 5.0081 3.63801 5.11304 3.35666 5.45719C2.98027 5.91951 2.64379 6.40736 2.32157 6.90939C2.22747 7.05405 2.23602 7.11361 2.42137 7.17317C4.32332 7.78015 6.22242 8.39564 8.12152 9.01112C9.58434 9.48479 11.0472 9.96413 12.51 10.4378C13.95 10.903 15.39 11.3625 16.8272 11.8276C18.0619 12.2275 19.2909 12.6303 20.5256 13.0302C21.0759 13.2089 21.6291 13.3819 22.1823 13.5578C22.245 13.5776 22.322 13.572 22.3676 13.6571C22.2992 13.745 22.1994 13.7081 22.1138 13.7081C19.0627 13.7081 16.0145 13.7081 12.9634 13.7081C8.74315 13.7081 4.52293 13.7081 0.305556 13.7024C0.108802 13.7024 0.040366 13.7478 0.02896 13.9577C-0.005258 14.6469 -0.0138125 15.3333 0.02896 16.0226C0.040366 16.2126 0.0973961 16.2722 0.288447 16.2665C0.687657 16.2523 1.08402 16.2608 1.48323 16.2608C8.35535 16.2608 15.2246 16.2608 22.0967 16.2608C22.1851 16.2608 22.2821 16.2381 22.4247 16.3261C22.0682 16.4452 21.7631 16.5473 21.4609 16.6437C19.462 17.2904 17.463 17.9343 15.4641 18.5781C13.2343 19.2957 11.0044 20.0133 8.77452 20.7337C7.19479 21.2443 5.61791 21.7605 4.04102 22.2739C3.49068 22.4526 2.94034 22.6341 2.38715 22.8014C2.23887 22.8468 2.22462 22.8979 2.2959 23.017C2.71222 23.6835 3.17987 24.3132 3.68744 24.9117C3.78154 25.0223 3.86993 25.0109 3.98399 24.9741C5.136 24.5997 6.28516 24.2281 7.43716 23.8565C8.86862 23.3942 10.3001 22.9319 11.7287 22.4696C13.2086 21.9902 14.6914 21.5109 16.1713 21.0315C17.791 20.5097 19.4135 19.9906 21.0331 19.4687C21.6747 19.2617 22.3135 19.0489 22.955 18.8419C23.0434 18.8135 23.1347 18.7908 23.2516 18.8079C22.8952 19.0688 22.5387 19.3297 22.1823 19.5907C19.5161 21.5166 16.85 23.4453 14.1838 25.3711C12.5898 26.5227 10.993 27.6743 9.399 28.8287C9.34767 28.8655 9.26213 28.8882 9.27068 28.9733C9.28209 29.0612 9.36763 29.0612 9.43036 29.0868C10.283 29.4498 11.1669 29.7221 12.0709 29.9263C12.202 29.9575 12.2847 29.898 12.376 29.8327C14.5574 28.2529 16.7416 26.6759 18.9259 25.096C20.8079 23.7346 22.6899 22.376 24.5718 21.0174C24.6346 20.972 24.7002 20.9379 24.8171 20.867C24.6888 21.1422 24.5234 21.3237 24.3808 21.5194C22.667 23.8736 20.9476 26.2277 19.2281 28.5791C18.943 28.9676 18.6578 29.3562 18.3727 29.7476C18.3299 29.8072 18.233 29.8724 18.2843 29.9433C18.347 30.0284 18.4639 29.9774 18.5495 29.9575C19.1454 29.8157 19.7414 29.6625 20.3231 29.464C20.9533 29.2484 21.5635 28.9847 22.168 28.6982C22.3847 28.5961 22.5159 28.4231 22.6471 28.2415C24.0215 26.3525 25.3959 24.4635 26.7761 22.5774C26.8074 22.5348 26.8331 22.4696 26.9471 22.4582C26.5394 23.7091 26.1373 24.9429 25.7381 26.1767C25.7552 26.188 25.7752 26.1965 25.7923 26.2079C26.0774 25.9242 26.3711 25.6519 26.6449 25.357C27.9794 23.9161 29.0145 22.2909 29.7188 20.4614C30.4916 18.4561 30.8223 16.3856 30.714 14.2357C30.5457 10.8406 29.3424 7.8539 27.1895 5.23311C27.0213 5.02606 26.8331 4.83603 26.6534 4.63748C26.451 4.40207 26.22 4.19501 26.0033 3.97661C25.9691 3.94258 25.932 3.88869 25.875 3.91989C25.8179 3.95109 25.8351 4.01349 25.8522 4.05887C25.8864 4.1468 25.875 4.24323 25.9206 4.32832L25.9263 4.33967Z" fill="white"/>
</g>
<defs>
<clipPath id="clip0_359_4131">
<rect width="234" height="30" fill="white"/>
</clipPath>
</defs>
</svg>
