<svg width="15" height="13" viewBox="0 0 15 13" fill="none" xmlns="http://www.w3.org/2000/svg">
<path d="M1.83268 12.1668C1.4431 12.1668 1.10971 12.0282 0.832516 11.751C0.555321 11.4738 0.416488 11.1402 0.416016 10.7502V2.25016C0.416016 1.86058 0.554849 1.52719 0.832516 1.25C1.11018 0.972802 1.44357 0.833968 1.83268 0.833496H13.166C13.5556 0.833496 13.8892 0.972329 14.1669 1.25C14.4446 1.52766 14.5832 1.86105 14.5827 2.25016V10.7502C14.5827 11.1397 14.4441 11.4734 14.1669 11.751C13.8897 12.0287 13.5561 12.1673 13.166 12.1668H1.83268ZM7.49935 7.08454C7.55838 7.08454 7.62047 7.07557 7.68564 7.05762C7.75081 7.03968 7.81267 7.01323 7.87122 6.97829L12.8827 3.84391C12.9771 3.78489 13.048 3.71122 13.0952 3.62291C13.1424 3.53461 13.166 3.43709 13.166 3.33037C13.166 3.09426 13.0657 2.91718 12.865 2.79912C12.6643 2.68107 12.4577 2.68697 12.2452 2.81683L7.49935 5.79183L2.75352 2.81683C2.54102 2.68697 2.33442 2.68414 2.13372 2.80833C1.93303 2.93252 1.83268 3.10654 1.83268 3.33037C1.83268 3.44843 1.85629 3.55184 1.90352 3.64062C1.95074 3.7294 2.02157 3.79716 2.11602 3.84391L7.12747 6.97829C7.1865 7.0137 7.2486 7.04039 7.31377 7.05833C7.37893 7.07627 7.44079 7.08501 7.49935 7.08454Z" fill="#1A1A1A"/>
</svg>
