<svg width="43" height="43" viewBox="0 0 43 43" fill="none" xmlns="http://www.w3.org/2000/svg">
<g clip-path="url(#clip0_359_3907)">
<path d="M43 6.18073C43 5.81885 42.9262 5.72073 42.549 5.72253C38.3514 5.73873 34.153 5.72973 29.9545 5.73783C29.6683 5.73783 29.4648 5.66582 29.2596 5.45697C28.1128 4.28851 26.9461 3.13985 25.7912 1.97949C24.4724 0.651687 22.8818 -6.03664e-05 21.0112 0.00534085C18.1288 0.0125425 15.2455 0.00714126 12.3631 0.00804146C12.0985 0.00804146 11.8347 0.0161433 11.5692 0.0584528C10.678 0.201585 9.94703 0.714701 9.15487 1.08378C8.8101 1.24492 8.46443 1.38535 8.08185 1.41416C7.46613 1.45977 7.15826 1.18041 7.15826 0.57607C7.15826 0.505854 7.14836 0.434738 7.16007 0.366322C7.21048 0.0737563 7.09525 -0.00186077 6.80089 -6.03663e-05C4.53423 0.0134427 2.26666 0.00714126 0 0.00714126V15.794C0.111623 15.7886 0.223246 15.7796 0.334869 15.7796C2.47551 15.7796 4.61704 15.7706 6.75768 15.7877C7.09975 15.7904 7.18167 15.6869 7.16547 15.3664C7.13936 14.8776 7.15556 14.387 7.16097 13.8973C7.16187 13.7974 7.10785 13.6218 7.27079 13.6308C7.73258 13.656 8.21238 13.4832 8.65167 13.7911C9.80751 14.6021 11.0957 15.0747 12.5009 15.1873C12.8276 15.2134 12.9122 15.2971 12.9104 15.6203C12.8969 18.3911 12.9086 21.1619 12.8951 23.9327C12.8933 24.2649 12.9473 24.3756 13.3155 24.3747C23.069 24.363 32.8225 24.363 42.576 24.3747C42.9334 24.3747 43.0009 24.2802 43 23.9399C42.9883 18.0202 42.9883 12.1014 43 6.18163V6.18073ZM5.31649 14.3528C4.12824 14.333 2.9391 14.3366 1.74996 14.351C1.4889 14.3546 1.42409 14.2799 1.42499 14.0233C1.43309 9.92468 1.43309 5.82695 1.42499 1.72833C1.42499 1.48347 1.50331 1.43036 1.73195 1.43216C2.96251 1.44297 4.19396 1.44747 5.42451 1.42946C5.71347 1.42496 5.72967 1.54289 5.72877 1.77154C5.72157 3.8141 5.72517 5.85576 5.72517 7.89832C5.72517 9.91298 5.71707 11.9267 5.73327 13.9414C5.73597 14.2763 5.64325 14.3591 5.31649 14.3528ZM12.1471 8.22239C11.949 8.06936 11.8518 8.08826 11.7294 8.28181C11.6556 8.39883 11.5548 8.49966 11.4665 8.60858C11.1545 8.99447 11.2052 9.33685 11.6187 9.63571C11.9139 9.84906 12.2182 10.0516 12.5603 10.1749C12.8177 10.2677 12.9194 10.4 12.9113 10.6926C12.887 11.5874 12.887 12.484 12.9113 13.3788C12.9203 13.7154 12.8303 13.8154 12.4955 13.7667C11.5161 13.6254 10.5619 13.3788 9.7634 12.7891C9.09456 12.2949 8.39602 12.0735 7.58495 12.1878C7.23748 12.2364 7.14746 12.1131 7.14926 11.7611C7.16547 8.92095 7.16367 6.08081 7.15106 3.24067C7.14926 2.9121 7.22398 2.80227 7.56605 2.83738C8.38162 2.9202 9.16388 2.75186 9.85792 2.32336C11.0165 1.6086 12.2488 1.37635 13.609 1.41776C16.0548 1.49158 18.5051 1.44657 20.9536 1.43576C22.474 1.42856 23.7595 1.94978 24.8253 3.03632C25.6931 3.92032 26.5761 4.78902 27.5222 5.73423C25.5598 5.73423 23.7136 5.73153 21.8673 5.73783C21.6845 5.73783 21.5549 5.68562 21.428 5.55509C20.9887 5.10409 20.5332 4.66929 20.0966 4.21559C19.9454 4.05806 19.8455 3.99594 19.6744 4.19669C19.4314 4.48205 18.984 4.7224 18.9516 5.01857C18.9264 5.24992 19.3927 5.54069 19.6492 5.79815C21.0616 7.21507 22.4848 8.62208 23.8873 10.048C24.7065 10.8816 24.3716 12.1887 23.277 12.4795C22.6963 12.6334 22.2138 12.438 21.7962 12.0177C20.5152 10.7268 19.2216 9.44757 17.9452 8.15218C17.7444 7.94873 17.6346 7.90192 17.3889 8.11347C15.7046 9.5646 13.9231 9.5988 12.148 8.22419L12.1471 8.22239ZM25.9127 18.0742C27.3566 19.0608 29.2488 18.9096 30.4973 17.6997C31.7495 16.4872 31.9664 14.5355 30.9942 13.0943C30.374 12.1752 29.508 11.6378 28.4017 11.5027C27.317 11.3704 26.3709 11.7206 25.4995 12.3714C25.8173 11.6576 25.8758 10.9527 25.6345 10.2316C25.5814 10.0732 25.6462 10.0291 25.7903 10.0354C25.874 10.039 25.9586 10.0354 26.0423 10.0354C28.9391 10.0354 31.8359 10.0408 34.7327 10.0282C35.0442 10.0264 35.1792 10.0921 35.2701 10.418C35.7067 11.9987 36.7356 13.0241 38.3154 13.4616C38.6377 13.5507 38.7196 13.6785 38.7079 13.9954C38.6818 14.7363 38.689 15.4789 38.7061 16.2198C38.7115 16.4566 38.6485 16.5556 38.4118 16.6177C36.7374 17.0543 35.6788 18.1246 35.2386 19.7918C35.1738 20.0385 35.0658 20.0763 34.8425 20.0763C30.2525 20.07 25.6625 20.0691 21.0724 20.0781C20.797 20.0781 20.7132 19.9962 20.6376 19.7261C20.1884 18.1192 19.155 17.0678 17.5356 16.6321C17.2646 16.5592 17.1908 16.4539 17.198 16.1838C17.2169 15.4006 17.2088 14.6165 17.2025 13.8325C17.2007 13.6425 17.234 13.5507 17.4582 13.5003C18.3106 13.3085 19.0443 12.8863 19.6294 12.2319C19.768 12.0771 19.8527 12.0672 19.9895 12.2211C20.1659 12.4191 20.3757 12.5884 20.5476 12.79C21.5711 13.9882 23.1761 14.4347 24.837 13.2599C23.7928 15.3052 24.6407 17.2019 25.9145 18.0724L25.9127 18.0742ZM25.7912 15.0558C25.7894 13.8649 26.7589 12.908 27.9624 12.9134C29.148 12.9188 30.0851 13.864 30.0842 15.0531C30.0833 16.2531 29.1102 17.2235 27.9237 17.2082C26.7544 17.1929 25.793 16.2225 25.7912 15.0558ZM41.566 22.6562C41.566 22.8732 41.5111 22.9596 41.2887 22.9362C41.1222 22.9191 40.953 22.9326 40.7855 22.9326C32.1249 22.9326 23.4633 22.9299 14.8026 22.9416C14.4237 22.9416 14.3273 22.8516 14.3291 22.4699C14.3444 18.6918 14.3444 14.9136 14.3291 11.1364C14.3273 10.7619 14.3696 10.6178 14.8035 10.6259C15.6812 10.6421 16.5193 10.4081 17.279 9.95619C17.4798 9.83646 17.604 9.81485 17.7714 10.0075C18.0181 10.292 18.2872 10.562 18.5717 10.8078C18.7832 10.9905 18.7283 11.1093 18.5654 11.2777C17.9092 11.9537 17.1053 12.24 16.1781 12.1797C15.8594 12.159 15.7577 12.2409 15.7622 12.5812C15.782 14.2322 15.7802 15.8831 15.7622 17.5341C15.7586 17.851 15.8414 17.923 16.1529 17.9212C17.6886 17.9122 18.7328 18.5891 19.1802 19.8332C19.3252 20.2374 19.3648 20.6542 19.3333 21.0719C19.3072 21.4167 19.4044 21.513 19.7608 21.5112C24.4481 21.4977 29.1354 21.5022 33.8226 21.5022C34.6202 21.5022 35.4177 21.4923 36.2153 21.5085C36.4647 21.5139 36.5646 21.4644 36.543 21.1916C36.5106 20.7865 36.543 20.3814 36.66 19.9871C37.0372 18.7161 38.1264 17.9293 39.5325 17.9122C39.9316 17.9074 40.1311 17.7123 40.1311 17.327C40.1311 15.7463 40.1203 14.1646 40.1401 12.5839C40.1446 12.2472 40.0474 12.1743 39.726 12.177C38.1309 12.1878 37.0408 11.4397 36.6564 10.102C36.5511 9.73564 36.507 9.35755 36.5448 8.98127C36.5772 8.65719 36.4602 8.59058 36.1505 8.59148C32.4147 8.60228 28.679 8.59418 24.9432 8.60588C24.6074 8.60678 24.3707 8.51586 24.1411 8.2719C23.8099 7.91993 23.4354 7.60846 23.0789 7.27898C23.1095 7.24027 23.1401 7.20246 23.1707 7.16376C29.2002 7.16376 35.2296 7.16466 41.2599 7.15925C41.4931 7.15925 41.5687 7.21597 41.5687 7.45992C41.5615 12.5254 41.5624 17.5908 41.5687 22.6553L41.566 22.6562Z" fill="#E7E7E7"/>
<path d="M42.7155 28.6553C40.52 28.6688 38.3235 28.667 36.1271 28.6571C35.875 28.6562 35.8201 28.7462 35.8291 28.973C35.8435 29.3637 35.8471 29.7571 35.8282 30.1478C35.8156 30.4026 35.966 30.7617 35.7526 30.8833C35.5906 30.976 35.3133 30.7023 35.1171 30.5565C33.8613 29.623 32.4688 29.2278 30.906 29.3826C30.3659 29.4366 29.8159 29.3952 29.2704 29.3934C28.8347 29.3925 28.4053 29.4411 27.9849 29.5537C25.1422 30.3107 22.2976 31.066 19.4575 31.8339C18.6482 32.0526 18.0379 32.555 17.6742 33.3093C17.5428 33.5812 17.4654 33.6019 17.2043 33.4597C14.9044 32.2021 12.5918 30.9652 10.2882 29.7148C9.46454 29.2674 8.61927 29.1765 7.75059 29.5366C6.68567 29.9777 6.08435 30.8014 5.98443 31.9347C5.87911 33.1257 6.38231 34.0574 7.40942 34.674C10.6384 36.614 13.8619 38.5656 17.1125 40.4686C18.6311 41.3571 20.0372 42.4617 21.7476 43.0018H32.9152C33.8307 42.7399 34.7057 42.3672 35.5861 42.0098C35.8066 41.9198 35.8444 42.0044 35.8372 42.2078C35.8282 42.4725 35.8471 42.7372 35.8534 43.0027H42.991V37.2954C42.991 34.5399 42.991 31.7844 42.991 29.028C42.991 28.8353 43.0387 28.6553 42.7146 28.6571L42.7155 28.6553ZM35.8597 33.989C35.7697 35.9865 35.8255 37.9904 35.8417 39.9915C35.8444 40.2958 35.7463 40.4353 35.47 40.5299C35.0226 40.6838 34.5779 40.8539 34.1494 41.0547C33.2564 41.4724 32.3283 41.6146 31.3426 41.5813C30.0148 41.5363 28.6844 41.5705 27.3548 41.5705C25.7174 41.5705 24.0799 41.5678 22.4425 41.5723C21.9834 41.5732 21.5585 41.4697 21.1651 41.2338C16.8289 38.6385 12.4919 36.045 8.15837 33.4462C7.56425 33.0897 7.2987 32.5207 7.41482 31.9338C7.53455 31.3289 7.97924 30.8914 8.59316 30.7726C8.92443 30.7086 9.23499 30.7789 9.52485 30.9346C12.0913 32.3182 14.6559 33.7063 17.2223 35.0908C17.352 35.161 17.4249 35.243 17.4753 35.3924C18.0028 36.9677 19.3621 37.7446 21.0085 37.3305C23.5389 36.695 26.054 35.9982 28.5773 35.333C28.778 35.2799 28.8617 35.1952 28.7825 34.9882C28.6493 34.638 28.7105 34.1258 28.4296 33.9521C28.174 33.7945 27.7536 34.0718 27.407 34.1627C25.2214 34.7397 23.0375 35.3222 20.851 35.8929C20.5584 35.9694 20.2614 36.0657 19.9445 35.991C19.2793 35.8353 18.822 35.3141 18.8013 34.6695C18.7778 33.9467 19.1946 33.3786 19.9067 33.1833C20.9293 32.9033 21.9546 32.6333 22.9781 32.3587C24.6497 31.9113 26.3232 31.4738 27.9912 31.0138C28.8158 30.787 29.653 30.814 30.491 30.8212C33.1421 30.8446 32.3301 30.6429 34.7012 31.9482C35.5924 32.4379 35.9066 32.978 35.8606 33.9872L35.8597 33.989ZM41.2068 41.5786C40.0051 41.5597 38.8024 41.5615 37.6007 41.5786C37.318 41.5822 37.2604 41.4958 37.2604 41.2293C37.2694 37.6366 37.2685 34.043 37.2604 30.4503C37.2604 30.1892 37.3081 30.0866 37.5998 30.0911C38.8015 30.1091 40.0042 30.1091 41.2059 30.0911C41.5129 30.0866 41.5678 30.1901 41.566 30.4701C41.5534 32.2597 41.5597 34.0493 41.5597 35.8389C41.5597 37.6285 41.5534 39.4181 41.5669 41.2077C41.5687 41.4931 41.5093 41.5849 41.2059 41.5804L41.2068 41.5786Z" fill="#E7E7E7"/>
</g>
<defs>
<clipPath id="clip0_359_3907">
<rect width="43" height="43" fill="white"/>
</clipPath>
</defs>
</svg>
