<svg width="43" height="43" viewBox="0 0 43 43" fill="none" xmlns="http://www.w3.org/2000/svg">
<g clip-path="url(#clip0_359_3867)">
<path d="M40.1191 19.1334C35.9903 19.1797 31.8615 19.1492 27.7327 19.1503C26.1029 19.1503 25.1959 20.0634 25.1948 21.7015C25.1948 27.9422 25.1948 34.1839 25.1948 40.4246C25.1948 40.6056 25.1759 40.7981 25.2274 40.9664C25.3253 41.2873 25.2022 41.3262 24.9149 41.3262C17.5254 41.3188 10.1348 41.3209 2.74521 41.3199C1.98131 41.3199 1.67933 41.0159 1.67933 40.2479C1.67933 27.7517 1.67933 15.2556 1.67933 2.7595C1.67933 1.99256 1.98237 1.68747 2.74626 1.68747C10.4725 1.68642 18.1977 1.68747 25.924 1.68011C26.2091 1.68011 26.2986 1.73481 26.2954 2.03885C26.2775 3.52223 26.287 5.0056 26.288 6.48898C26.288 8.31742 27.3118 9.33369 29.1521 9.33474C30.5652 9.33474 31.9794 9.33474 33.3925 9.33474C33.7509 9.33474 33.9301 9.52096 33.9301 9.89338C33.9301 11.9648 33.927 14.0353 33.9322 16.1067C33.9343 16.7916 34.3573 17.1735 34.955 17.0557C35.3737 16.9725 35.6084 16.6275 35.6084 16.0688C35.6105 13.6618 35.601 11.2547 35.6168 8.8487C35.6199 8.36371 35.4674 7.99971 35.1254 7.6599C32.7422 5.29386 30.3653 2.92046 28.001 0.534436C27.6275 0.156754 27.2266 0 26.6994 0C18.7638 0.0105204 10.8282 0.00736427 2.89251 0.00736427C0.995409 0.00736427 3.35438e-05 1.00365 3.35438e-05 2.90468C3.35438e-05 15.303 3.35438e-05 27.7012 3.35438e-05 40.0995C3.35438e-05 40.2815 -0.00627962 40.4646 0.0126599 40.6445C0.11367 41.626 0.598732 42.3393 1.4931 42.7749C1.6646 42.858 1.8782 42.8411 2.01604 43H41.0693C41.8058 42.7896 42.4297 42.4372 42.7759 41.7049C42.8496 41.5492 42.838 41.3493 43.0011 41.2368V20.9998C42.555 19.5827 41.5533 19.1177 40.1202 19.1334H40.1191ZM27.9684 3.03619C29.4972 4.56585 31.0429 6.11024 32.5812 7.64938C31.3554 7.64938 30.0728 7.66305 28.7902 7.64201C28.2967 7.6336 27.9789 7.2759 27.9726 6.75199C27.9579 5.49585 27.9684 4.24077 27.9684 3.03619ZM41.3207 40.4383C41.3207 41.1484 41.1461 41.3199 40.4243 41.3199C36.1976 41.3199 31.9709 41.3199 27.7432 41.3199C27.054 41.3199 26.8752 41.141 26.8752 40.452C26.8752 34.1965 26.8752 27.9411 26.8752 21.6857C26.8752 21.0029 27.054 20.8283 27.7506 20.8283C31.992 20.8283 36.2323 20.8283 40.4737 20.8283C41.1366 20.8283 41.3207 21.0113 41.3207 21.671C41.3207 24.8197 41.3207 27.9685 41.3207 31.1172C41.3207 34.266 41.3207 37.3306 41.3207 40.4372V40.4383Z" fill="#E7E7E7"/>
<path d="M12.3362 18.2424C12.4667 17.9499 12.5951 17.6543 12.7045 17.3534C12.7771 17.1535 12.8907 17.082 13.1075 17.0841C14.045 17.0956 14.9835 17.0956 15.921 17.0841C16.1346 17.082 16.242 17.1461 16.3219 17.3502C16.4745 17.7384 16.6376 18.1277 16.8459 18.4875C17.0543 18.8473 17.4173 18.9283 17.7961 18.8031C18.1464 18.6874 18.3243 18.4096 18.3495 17.9678C18.3179 17.8605 18.2832 17.6816 18.2138 17.5164C17.2689 15.2819 16.3156 13.0505 15.3707 10.816C15.2066 10.4278 14.9783 10.1322 14.5185 10.1343C14.0618 10.1364 13.8282 10.4204 13.6641 10.8139C13.1864 11.9596 12.6929 13.0979 12.2079 14.2393C11.7333 15.3556 11.2535 16.4697 10.7895 17.5911C10.5685 18.1256 10.7443 18.6074 11.1935 18.7936C11.6523 18.983 12.1005 18.7694 12.3373 18.2403L12.3362 18.2424ZM13.6367 15.1746C13.9198 14.516 14.2007 13.8554 14.5164 13.1158C14.8541 13.909 15.1614 14.6307 15.4928 15.4103C14.8815 15.4103 14.327 15.4071 13.7725 15.4113C13.5725 15.4124 13.5736 15.3198 13.6357 15.1746H13.6367Z" fill="#E7E7E7"/>
<path d="M22.4159 27.3846C22.2906 27.374 22.1644 27.3814 22.0381 27.3814C19.3245 27.3814 16.612 27.3814 13.8983 27.3814C11.1153 27.3814 8.33225 27.3793 5.54919 27.3825C4.93892 27.3825 4.54751 27.7128 4.54014 28.2115C4.53278 28.7112 4.92735 29.0489 5.5292 29.0605C5.58497 29.0615 5.64073 29.0605 5.6965 29.0605C11.1648 29.0605 16.633 29.0605 22.1013 29.0605C22.1991 29.0605 22.297 29.0647 22.3948 29.0584C22.9051 29.0226 23.265 28.667 23.2576 28.2104C23.2502 27.7675 22.903 27.4245 22.4148 27.3856L22.4159 27.3846Z" fill="#52D0B2"/>
<path d="M5.61718 38.4657C5.67294 38.4657 5.72871 38.4657 5.78553 38.4657C11.2264 38.4657 16.6663 38.4657 22.1072 38.4657C22.2334 38.4657 22.3597 38.4721 22.4838 38.4563C22.9394 38.3974 23.2677 38.0355 23.2593 37.6115C23.2509 37.2022 22.9321 36.8572 22.4965 36.7983C22.3586 36.7793 22.2176 36.7867 22.0777 36.7867C19.3641 36.7867 16.6515 36.7867 13.9379 36.7867C11.1686 36.7867 8.39918 36.7846 5.63086 36.7877C5.01953 36.7877 4.63127 37.1191 4.62601 37.6199C4.6218 38.1217 5.01217 38.4542 5.61823 38.4657H5.61718Z" fill="#52D0B2"/>
<path d="M25.1199 11.4272C25.4114 10.9538 25.3135 10.4625 24.9158 10.2058C24.5181 9.94913 24.0362 10.0722 23.7152 10.5172C23.6416 10.6193 23.5806 10.7287 23.5122 10.835C23.0829 11.5104 22.6536 12.1847 22.2011 12.8969C21.6992 12.1069 21.231 11.3641 20.7554 10.6256C20.404 10.0785 19.9252 9.92388 19.4896 10.2058C19.0624 10.4825 19.0056 10.9928 19.3476 11.5388C19.7032 12.1069 20.0662 12.6697 20.4229 13.2378C20.6755 13.6386 21.0942 14.0321 21.1237 14.4498C21.1542 14.8927 20.6765 15.2809 20.4229 15.6943C20.0441 16.3129 19.6327 16.9136 19.2666 17.5396C18.9162 18.1382 19.2403 18.8157 19.8821 18.862C20.2746 18.8904 20.5345 18.6758 20.7333 18.357C21.2142 17.589 21.7024 16.8263 22.2011 16.0404C22.723 16.861 23.2239 17.6501 23.7268 18.4391C23.9152 18.7347 24.1835 18.8925 24.536 18.8589C24.8516 18.8294 25.0768 18.6579 25.2115 18.3654C25.3724 18.0172 25.2557 17.7163 25.0684 17.4228C24.5065 16.5391 23.9572 15.647 23.3785 14.7748C23.2197 14.535 23.2407 14.3772 23.3891 14.1499C23.9783 13.2504 24.5549 12.3425 25.1189 11.4283L25.1199 11.4272Z" fill="#E7E7E7"/>
<path d="M22.284 22.682C17.9489 22.6767 13.615 22.6788 9.27993 22.682C9.16945 22.682 9.05581 22.6957 8.94954 22.7241C8.57496 22.824 8.32138 23.148 8.32033 23.5173C8.31822 23.8845 8.56864 24.219 8.94428 24.3126C9.10421 24.3526 9.27572 24.3579 9.44196 24.3579C11.5537 24.361 13.6644 24.36 15.7762 24.36H16.0276C18.0973 24.36 20.167 24.3579 22.2356 24.3621C22.6249 24.3621 22.9595 24.2674 23.1563 23.9055C23.4772 23.3153 23.0342 22.6841 22.284 22.683V22.682Z" fill="#52D0B2"/>
<path d="M22.5969 32.1188C22.4485 32.0861 22.2917 32.0851 22.1391 32.0851C17.902 32.083 13.6658 32.084 9.42865 32.0851C9.30344 32.0851 9.17507 32.0809 9.05196 32.1019C8.67002 32.1693 8.42275 32.3923 8.33963 32.7742C8.21863 33.3286 8.65002 33.761 9.33395 33.762C11.4867 33.7652 13.6406 33.7631 15.7934 33.7631C17.9051 33.7631 20.0158 33.7631 22.1276 33.762C22.2801 33.762 22.438 33.762 22.5853 33.7315C22.9809 33.6474 23.2545 33.3107 23.2566 32.9288C23.2597 32.548 22.9893 32.2061 22.5947 32.1188H22.5969Z" fill="#52D0B2"/>
<path d="M8.89725 11.7471C9.20239 11.7765 9.51278 11.7692 9.82003 11.7492C10.3651 11.7145 10.707 11.3578 10.6891 10.8728C10.6712 10.4026 10.3251 10.0806 9.78951 10.0775C8.34906 10.0691 6.90755 10.0691 5.46605 10.0775C4.91891 10.0806 4.54643 10.4257 4.54012 10.8991C4.5338 11.3641 4.90628 11.7229 5.44711 11.7513C5.76803 11.7681 6.09316 11.7797 6.41197 11.7481C6.74446 11.7145 6.80023 11.8481 6.79497 12.1479C6.77603 13.0989 6.7876 14.05 6.78866 15.001C6.78866 15.9805 6.78129 16.9599 6.79181 17.9383C6.79813 18.5127 7.15482 18.8778 7.65356 18.8546C8.17545 18.8304 8.46585 18.4601 8.4669 17.7921C8.47006 15.9173 8.47953 14.0426 8.45849 12.1689C8.45428 11.8049 8.5616 11.7155 8.89936 11.7481L8.89725 11.7471Z" fill="#E7E7E7"/>
<path d="M4.62507 23.5562C4.64822 23.9938 5.05436 24.3705 5.48471 24.3536C5.92242 24.3368 6.30437 23.9349 6.29385 23.5025C6.28333 23.067 5.8856 22.6798 5.45209 22.6841C5.0007 22.6883 4.60087 23.1101 4.62507 23.5551V23.5562Z" fill="#52D0B2"/>
<path d="M5.46313 33.7578C5.89453 33.7547 6.29015 33.3612 6.29436 32.9288C6.29857 32.4964 5.91031 32.0988 5.4747 32.0883C5.04015 32.0777 4.64137 32.4565 4.62453 32.8962C4.6077 33.3444 5.01174 33.7599 5.46313 33.7568V33.7578Z" fill="#52D0B2"/>
<path d="M38.5565 22.5094C37.074 22.5084 35.5925 22.5094 34.11 22.5094C32.6001 22.5094 31.0902 22.5073 29.5792 22.5105C28.8721 22.5126 28.5596 22.8272 28.5565 23.5362C28.5523 24.5146 28.5533 25.493 28.5565 26.4725C28.5586 27.2405 28.8585 27.5466 29.6203 27.5477C32.6127 27.5498 35.6051 27.5498 38.5976 27.5477C39.3331 27.5477 39.6392 27.2352 39.6424 26.4967C39.6456 25.532 39.6445 24.5672 39.6424 23.6025C39.6413 22.7998 39.3562 22.5115 38.5576 22.5105L38.5565 22.5094ZM37.8989 25.7792C37.6517 26.0569 37.0593 25.8623 36.6184 25.8644C34.6182 25.8728 32.6169 25.8602 30.6167 25.876C30.3052 25.8781 30.2021 25.8086 30.2284 25.4899C30.2631 25.0743 30.0864 24.5115 30.2968 24.2748C30.5378 24.0054 31.1102 24.198 31.5374 24.1917C32.3907 24.179 33.244 24.1885 34.0973 24.1885C35.2726 24.1885 36.4479 24.1969 37.6232 24.1822C37.8926 24.179 37.9873 24.2432 37.9684 24.523C37.9389 24.9533 38.1167 25.5351 37.8989 25.7792Z" fill="#E7E7E7"/>
<path d="M30.4639 29.9074C30.2851 29.8884 30.102 29.9042 29.921 29.9042C29.7263 29.9042 29.5296 29.8874 29.336 29.9074C28.9025 29.9516 28.5794 30.2924 28.5595 30.7027C28.5405 31.1077 28.8351 31.4844 29.2718 31.5496C29.6843 31.6117 30.1083 31.6106 30.5207 31.5496C30.9574 31.4854 31.2531 31.1098 31.2362 30.7048C31.2184 30.2945 30.8964 29.9537 30.4629 29.9074H30.4639Z" fill="#E7E7E7"/>
<path d="M34.6822 29.9105C34.4897 29.8874 34.2929 29.9063 34.0972 29.9063V29.9021C33.9162 29.9021 33.7332 29.8884 33.5543 29.9053C33.1113 29.9463 32.7925 30.2672 32.762 30.6838C32.7315 31.0878 33.0198 31.4749 33.4533 31.5454C33.8794 31.6148 34.3171 31.6138 34.7433 31.5454C35.161 31.4781 35.443 31.1172 35.4367 30.7248C35.4303 30.3124 35.1157 29.9621 34.6822 29.9105Z" fill="#E7E7E7"/>
<path d="M37.6682 31.5496C38.0807 31.6127 38.5037 31.6106 38.9172 31.5517C39.3539 31.4886 39.6516 31.114 39.6359 30.709C39.619 30.2808 39.2844 29.9431 38.8236 29.9042C38.6573 29.8905 38.489 29.9021 38.3227 29.9021V29.9042C38.1281 29.9042 37.9313 29.8884 37.7377 29.9074C37.3042 29.9505 36.9801 30.2903 36.9591 30.6995C36.938 31.1046 37.2316 31.4823 37.6682 31.5496Z" fill="#E7E7E7"/>
<path d="M29.2828 35.5821C29.6963 35.6399 30.1193 35.6441 30.5318 35.5789C30.9674 35.5105 31.2599 35.1308 31.2367 34.7257C31.2136 34.3144 30.8906 33.9809 30.4549 33.9367C30.2761 33.9188 30.093 33.9335 29.912 33.9335C29.912 33.9335 29.912 33.9325 29.912 33.9314C29.731 33.9314 29.549 33.9188 29.3691 33.9335C28.9093 33.9725 28.5757 34.3123 28.561 34.7415C28.5473 35.1455 28.8472 35.519 29.2828 35.581V35.5821Z" fill="#E7E7E7"/>
<path d="M33.3856 35.5632C33.6203 35.6326 33.856 35.5947 34.0917 35.6105C34.3273 35.5937 34.5641 35.6347 34.7977 35.5663C35.1859 35.4527 35.4627 35.1171 35.4332 34.7415C35.4016 34.3407 35.1912 34.044 34.7903 33.9672C34.3389 33.8809 33.8717 33.8904 33.4182 33.963C33.0289 34.0251 32.7427 34.3933 32.7638 34.7699C32.7859 35.1686 32.9868 35.4443 33.3856 35.5632Z" fill="#E7E7E7"/>
<path d="M38.9268 33.9504C38.7226 33.9198 38.5101 33.9451 38.3018 33.9451C38.3018 33.9419 38.3018 33.9398 38.3018 33.9367C38.1071 33.9367 37.9093 33.9177 37.7178 33.9409C37.2843 33.9914 36.9686 34.3396 36.9592 34.752C36.9508 35.1434 37.2317 35.5095 37.6494 35.5747C38.0892 35.6431 38.5396 35.6536 38.9783 35.5663C39.3771 35.4874 39.6402 35.1402 39.6359 34.7604C39.6328 34.3659 39.3371 34.0114 38.9268 33.9514V33.9504Z" fill="#E7E7E7"/>
<path d="M30.4339 37.966C30.254 37.9502 30.072 37.9639 29.891 37.9639C29.891 37.9639 29.891 37.9629 29.891 37.9618C29.7237 37.9618 29.5554 37.9513 29.3891 37.9639C28.9251 37.9986 28.5895 38.3237 28.5621 38.754C28.5358 39.1727 28.8472 39.5704 29.3039 39.6156C29.7027 39.6556 30.113 39.6545 30.5118 39.6114C30.9485 39.5651 31.2494 39.1832 31.2378 38.7782C31.2262 38.349 30.8938 38.0071 30.4339 37.966Z" fill="#E7E7E7"/>
<path d="M34.672 37.9691C34.4932 37.9492 34.3101 37.966 34.1291 37.966C34.1291 37.966 34.1291 37.966 34.1291 37.9649C33.9344 37.9649 33.7377 37.9492 33.5441 37.9681C33.1074 38.0102 32.7854 38.3426 32.7602 38.755C32.736 39.1601 33.0274 39.543 33.4631 39.6082C33.8892 39.6724 34.3269 39.6777 34.752 39.603C35.1676 39.5304 35.4475 39.1653 35.4359 38.775C35.4233 38.3637 35.1045 38.0186 34.671 37.9691H34.672Z" fill="#E7E7E7"/>
<path d="M38.9321 37.986C38.505 37.9471 38.0672 37.9471 37.6411 37.9912C37.2497 38.0312 36.9709 38.3984 36.9593 38.7771C36.9488 39.1537 37.2139 39.4862 37.6032 39.5988C37.8368 39.6661 38.0746 39.6251 38.4008 39.6482C38.5323 39.6377 38.7585 39.6429 38.9742 39.5977C39.373 39.5146 39.6382 39.1769 39.6371 38.796C39.6371 38.4026 39.3425 38.0239 38.9332 37.986H38.9321Z" fill="#E7E7E7"/>
</g>
<defs>
<clipPath id="clip0_359_3867">
<rect width="43" height="43" fill="white"/>
</clipPath>
</defs>
</svg>
